# AST/ASF file generated using VICON BodyLanguage
# -----------------------------------------------
:version 1.10
:name VICON
:units
  mass 1.0
  length 0.45
  angle deg
:documentation
   .ast/.asf automatically generated from VICON data using
   VICON BodyBuilder and BodyLanguage model FoxedUp or BRILLIANT.MOD
:root
   order TX TY TZ RX RY RZ
   axis XYZ
   position 0 0 0  
   orientation 0 0 0 
:bonedata
  begin
     id 1 
     name lhipjoint
     direction 0.627457 -0.725269 0.283342 
     length 2.53237 
     axis 0 0 0  XYZ
  end
  begin
     id 2 
     name lfemur
     direction 0.34202 -0.939693 0  
     length 7.32496  
     axis 0 0 20  XYZ
    dof rx ry rz
    limits (-160.0 20.0)
           (-70.0 70.0)
           (-60.0 70.0)
  end
  begin
     id 3 
     name ltibia
     direction 0.34202 -0.939693 0   
     length 7.69674   
     axis 0 0 20   XYZ
    dof rx
    limits (-10.0 170.0)
  end
  begin
     id 4 
     name lfoot
     direction 0.127289 -0.349722 0.928166   
     length 1.8612   
     axis -90 7.62852e-016 20   XYZ
    dof rx rz
    limits (-45.0 90.0)
           (-70.0 20.0)
  end
  begin
     id 5 
     name ltoes
     direction 1.53561e-011 -4.21864e-011 1   
     length 0.925608   
     axis -90 7.62852e-016 20   XYZ
    dof rx
    limits (-90.0 20.0)
  end
  begin
     id 6 
     name rhipjoint
     direction -0.609094 -0.738725 0.288599   
     length 2.48624  
     axis 0 0 0  XYZ 
  end
  begin
     id 7 
     name rfemur
     direction -0.34202 -0.939693 0   
     length 7.44259   
     axis 0 0 -20   XYZ
    dof rx ry rz
    limits (-160.0 20.0)
           (-70.0 70.0)
           (-70.0 60.0)
  end
  begin
     id 8 
     name rtibia
     direction -0.34202 -0.939693 0   
     length 7.7781   
     axis 0 0 -20   XYZ
    dof rx
    limits (-10.0 170.0)
 end
 begin
     id 9 
     name rfoot
     direction -0.107015 -0.294021 0.949789   
     length 2.14741  
     axis -90 -7.62852e-016 -20   XYZ
    dof rx rz
    limits (-45.0 90.0)
           (-20.0 70.0)
  end
  begin
     id 10 
     name rtoes
     direction -1.53497e-011 -4.21924e-011 1   
     length 1.0706   
     axis -90 -7.62852e-016 -20   XYZ
    dof rx
    limits (-90.0 20.0)
  end
  begin
     id 11 
     name lowerback
     direction -0.0142066 0.998112 -0.0597545   
     length 1.86627   
     axis 0 0 0   XYZ
    dof rx ry rz
    limits (-20.0 45.0)
           (-30.0 30.0)
           (-30.0 30.0)
  end
  begin
     id 12 
     name upperback
     direction 0.00547294 0.999744 0.0219437   
     length 1.86272   
     axis 0 0 0   XYZ
    dof rx ry rz
    limits (-20.0 45.0)
           (-30.0 30.0)
           (-30.0 30.0)
  end
  begin
     id 13 
     name thorax
     direction 0.0116162 0.998704 0.0495538   
     length 1.8703   
     axis 0 0 0   XYZ
    dof rx ry rz
    limits (-20.0 45.0)
           (-30.0 30.0)
           (-30.0 30.0)
  end
  begin
     id 14 
     name lowerneck
     direction -0.0106574 0.998739 0.0490586   
     length 1.8074   
     axis 0 0 0   XYZ
    dof rx ry rz
    limits (-20.0 45.0)
           (-30.0 30.0)
           (-30.0 30.0)
  end
  begin
     id 15 
     name upperneck
     direction 0.030527 0.976587 -0.212944   
     length 1.80681   
     axis 0 0 0   XYZ
    dof rx ry rz
    limits (-20.0 45.0)
           (-30.0 30.0)
           (-30.0 30.0)
  end
  begin
     id 16
     name head
     direction 0.00869225 0.997035 -0.0764531  
     length 1.8313  
     axis 0 0 0   XYZ
    dof rx ry rz
    limits (-20.0 45.0)
           (-30.0 30.0)
           (-30.0 30.0)
  end
  begin
     id 17 
     name lclavicle
     direction 0.915958 0.399447 0.0382386  
     length 3.78965  
     axis 0 0 0   XYZ
    dof ry rz
    limits (-20.0 10.0)
           (0.0 20.0)
  end
  begin
     id 18 
     name lhumerus
     direction 1 -4.48967e-011 3.19303e-027   
     length 4.78095   
     axis -180 -30 -90   XYZ
    dof rx ry rz
    limits (-60.0 90.0)
           (-90.0 90.0)
           (-90.0 90.0)
  end
  begin
     id 19
     name lradius
     direction 1 -4.48967e-011 -3.77974e-027   
     length 3.58615   
     axis -180 -30 -90   XYZ
    dof rx
    limits (-10.0 170.0)
  end
  begin
     id 20
     name lwrist
     direction 1 -4.48927e-011 1.2807e-027   
     length 1.79307   
     axis 1.91374e-015 90 90   XYZ
    dof ry
    limits (-180.0 0.0)
 end
  begin
     id 21 
     name lhand
     direction 1 -4.49036e-011 2.5614e-027   
     length 0.659812   
     axis -1.63439e-015 90 90   XYZ
    dof rx rz
    limits (-90.0 90.0)
           (-45.0 45.0)
  end
  begin
     id 22 
     name lfingers
     direction 1 -4.49052e-011 5.1228e-027   
     length 0.531957   
     axis -3.26879e-015 90 90   XYZ
    dof rx
    limits (0.0 90.0)
  end
  begin
     id 23
     name lthumb
     direction 0.707107 -6.35012e-011 0.707107   
     length 0.763787   
     axis -90 45 2.85299e-015   XYZ
    dof rx rz
    limits (-45.0 45.0)
           (-45.0 45.0)
  end
  begin
     id 24 
     name rclavicle
     direction -0.895351 0.435135 0.0948887   
     length 3.70497  
     axis 0 0 0   XYZ 
    dof ry rz
    limits (-10.0 20.0)
           (-20.0 0.0)
  end
  begin
     id 25 
     name rhumerus
     direction -1 -4.48971e-011 2.38946e-027  
     length 4.48913   
     axis -180 30 90   XYZ
    dof rx ry rz
    limits (-90.0 60.0)
           (-90.0 90.0)
           (-90.0 90.0)
  end
  begin
     id 26 
     name rradius
     direction -1 -4.4895e-011 4.38668e-027   
     length 3.7051   
     axis -180 30 90   XYZ
    dof rx
    limits (-10.0 170.0)
  end
  begin
     id 27 
     name rwrist
     direction -1 -4.49007e-011 1.2807e-027   
     length 1.85255   
     axis 1.91374e-015 -90 -90   XYZ
    dof ry
    limits (-180.0 0.0)
  end
  begin
     id 28
     name rhand
     direction -1 -4.48851e-011 2.5614e-027   
     length 0.449136   
     axis -1.63439e-015 -90 -90   XYZ
    dof rx rz
    limits (-90.0 90.0)
           (-45.0 45.0)
  end
  begin
     id 29
     name rfingers
     direction -1 -4.49128e-011 5.1228e-027   
     length 0.362105   
     axis -3.26879e-015 -90 -90   XYZ
    dof rx
    limits (0.0 90.0)
  end
  begin
     id 30
     name rthumb
     direction -0.707107 -6.34851e-011 0.707107   
     length 0.519912   
     axis -90 -45 -2.85299e-015   XYZ
    dof rx rz
    limits (-45.0 45.0)
           (-45.0 45.0)
  end
:hierarchy
  begin
    root lhipjoint rhipjoint lowerback
    lhipjoint lfemur
    lfemur ltibia
    ltibia lfoot
    lfoot ltoes
    rhipjoint rfemur
    rfemur rtibia
    rtibia rfoot
    rfoot rtoes
    lowerback upperback
    upperback thorax
    thorax lowerneck lclavicle rclavicle
    lowerneck upperneck
    upperneck head
    lclavicle lhumerus
    lhumerus lradius
    lradius lwrist
    lwrist lhand lthumb
    lhand lfingers
    rclavicle rhumerus
    rhumerus rradius
    rradius rwrist
    rwrist rhand rthumb
    rhand rfingers
  end

#!OML:ASF I:\Actors\actors\Patient Classification 2\Patient 1\Session 1\actor1.ASF
:FULLY-SPECIFIED
:DEGREES
1
root -0.549776 18.5597 5.89027 -1.12821 -4.86267 -3.50509
lowerback 0.685405 1.57922 1.99483
upperback -1.53978 2.14745 0.45808
thorax -1.90671 1.0461 -0.696299
lowerneck -10.0482 -2.1349 -0.800538
upperneck 30.1793 -3.80507 2.85407
head 11.5453 -1.47487 0.70751
rclavicle 2.8302e-014 3.97569e-016
rhumerus -48.7727 -4.57892 -86.5388
rradius 42.768
rwrist 20.2796
rhand -16.2753 -33.4339
rfingers 7.12502
rthumb 9.93453 -63.1795
lclavicle 2.8302e-014 3.97569e-016
lhumerus -42.0489 4.34635 89.6143
lradius 34.4543
lwrist -8.38267
lhand -17.0429 -35.5124
lfingers 7.12502
lthumb 9.19398 -5.73282
rfemur 0 0 0
rtibia 0
rfoot 0 0
rtoes 0
lfemur 0.782505 -4.46675 -11.6617
ltibia 21.5147
lfoot -26.088 18.1043
ltoes -55.3159
2
root -0.55086 18.5664 5.89209 -0.844595 -4.77403 -2.90955
lowerback 0.362481 1.56085 1.34389
upperback -1.68003 2.10553 0.320003
thorax -1.88799 1.03355 -0.46593
lowerneck -9.76293 -2.19521 -0.896582
upperneck 30.3492 -3.88378 2.87319
head 11.5582 -1.52059 0.725035
rclavicle 2.77056e-014 -7.95139e-016
rhumerus -48.9461 -4.48463 -86.4298
rradius 42.8151
rwrist 20.0048
rhand -16.0921 -32.9439
rfingers 7.12502
rthumb 10.1113 -62.6809
lclavicle 2.77056e-014 -7.95139e-016
lhumerus -42.3622 4.04987 89.7236
lradius 35.0426
lwrist -7.87519
lhand -17.1612 -35.2588
lfingers 7.12502
lthumb 9.07977 -5.47428
rfemur 0 0 0
rtibia 0
rfoot 0 0
rtoes 0
lfemur 0.709817 -4.74154 -12.3694
ltibia 20.9931
lfoot -25.9867 18.3939
ltoes -55.2324
3
root -0.551986 18.5721 5.8924 -0.605721 -4.68435 -2.2729
lowerback 0.0937019 1.53782 0.644882
upperback -1.8001 2.061 0.171935
thorax -1.87982 1.02078 -0.22028
lowerneck -9.53435 -2.22221 -1.04285
upperneck 30.5148 -3.93378 2.99203
head 11.584 -1.54626 0.791357
rclavicle 1.09332e-015 7.35503e-015
rhumerus -49.0617 -4.47431 -86.2907
rradius 42.801
rwrist 19.9137
rhand -15.7688 -32.3727
rfingers 7.12502
rthumb 10.4232 -62.0943
lclavicle 1.09332e-015 7.35503e-015
lhumerus -42.6571 3.79588 89.7982
lradius 35.6091
lwrist -7.47518
lhand -17.1779 -34.9686
lfingers 7.12502
lthumb 9.0637 -5.18331
rfemur 0 0 0
rtibia 0
rfoot 0 0
rtoes 0
lfemur 0.729849 -4.98302 -13.1124
ltibia 20.3575
lfoot -25.8075 18.6361
ltoes -55.1437
4
root -0.550233 18.5801 5.89151 -0.194229 -4.47194 -0.911901
lowerback -0.399867 1.46849 -0.791265
upperback -1.95841 1.95012 -0.183743
thorax -1.8018 0.985355 0.231419
lowerneck -9.36147 -2.2305 -1.15826
upperneck 30.6447 -3.95554 3.08851
head 11.6053 -1.55819 0.847013
rclavicle 2.23633e-016 1.19271e-015
rhumerus -49.1251 -4.46023 -86.1807
rradius 42.7844
rwrist 19.831
rhand -15.3789 -31.8173
rfingers 7.12502
rthumb 10.7993 -61.5197
lclavicle 2.23633e-016 1.19271e-015
lhumerus -42.9143 3.48784 89.8891
lradius 36.1729
lwrist -7.10686
lhand -17.1606 -34.6817
lfingers 7.12502
lthumb 9.08036 -4.89714
rfemur 0 0 0
rtibia 0
rfoot 0 0
rtoes 0
lfemur 0.397701 -5.35602 -14.685
ltibia 19.895
lfoot -25.7513 18.9067
ltoes -55.029
5
root -0.550878 18.5819 5.89811 -0.114351 -4.41832 -0.996594
lowerback -0.494664 1.45051 -0.714099
upperback -1.9779 1.92796 -0.14462
thorax -1.76713 0.97338 0.230966
lowerneck -9.15866 -2.24296 -1.28629
upperneck 30.6765 -3.97877 3.19144
head 11.5823 -1.57313 0.907069
rclavicle 1.30452e-014 5.96354e-016
rhumerus -49.1105 -4.2325 -86.1349
rradius 42.6784
rwrist 19.5176
rhand -14.8509 -30.9884
rfingers 7.12502
rthumb 11.3086 -60.6636
lclavicle 1.30452e-014 5.96354e-016
lhumerus -43.1687 3.08154 90.0454
lradius 36.9084
lwrist -6.67241
lhand -16.904 -33.8797
lfingers 7.12502
lthumb 9.32794 -4.10603
rfemur 0 0 0
rtibia 0
rfoot 0 0
rtoes 0
lfemur 0.529318 -5.58496 -14.6159
ltibia 19.5674
lfoot -25.8566 18.9723
ltoes -54.8868
6
root -0.550123 18.5843 5.90464 -0.0201915 -4.31018 -1.13976
lowerback -0.156965 1.49241 -0.348759
upperback -2.35021 1.98173 -0.237604
thorax -2.32408 0.993927 -0.0855036
lowerneck -8.45281 -2.3062 -1.39905
upperneck 30.6948 -4.1171 3.41826
head 11.4578 -1.63056 1.00203
rclavicle -1.07592e-014 1.39149e-014
rhumerus -49.6812 -4.10394 -86.1658
rradius 42.5322
rwrist 19.0393
rhand -14.4786 -29.9611
rfingers 7.12502
rthumb 11.6676 -59.6162
lclavicle -1.07592e-014 1.39149e-014
lhumerus -44.1528 2.062 90.2532
lradius 38.3736
lwrist -6.00045
lhand -16.2815 -32.1671
lfingers 7.12502
lthumb 9.92861 -2.42126
rfemur 0 0 0
rtibia 0
rfoot 0 0
rtoes 0
lfemur 0.577545 -5.72475 -14.4639
ltibia 19.3502
lfoot -25.8548 18.9882
ltoes -54.8354
7
root -0.549535 18.5866 5.90499 0.0439424 -4.2351 -1.223
lowerback 0.0103884 1.5047 -0.168483
upperback -2.40719 1.99922 -0.26275
thorax -2.46974 0.998606 -0.218288
lowerneck -8.40407 -2.34644 -1.43708
upperneck 30.662 -4.17595 3.45309
head 11.4387 -1.65829 1.01472
rclavicle -2.16178e-015 5.1684e-015
rhumerus -49.7314 -3.96274 -86.1713
rradius 42.4344
rwrist 18.7496
rhand -14.3844 -29.2414
rfingers 7.12502
rthumb 11.7584 -58.8914
lclavicle -2.16178e-015 5.1684e-015
lhumerus -44.2379 1.86948 90.2029
lradius 38.5366
lwrist -6.023
lhand -15.9889 -31.5136
lfingers 7.12502
lthumb 10.2109 -1.78138
rfemur 0 0 0
rtibia 0
rfoot 0 0
rtoes 0
lfemur 0.571523 -5.84732 -14.3799
ltibia 19.2517
lfoot -25.8304 19.0379
ltoes -54.7388
8
root -0.5503 18.5886 5.90099 0.0991432 -4.20361 -1.24459
lowerback 0.109534 1.50907 -0.147804
upperback -2.38681 2.00523 -0.260688
thorax -2.5039 1.00114 -0.230428
lowerneck -8.4767 -2.37397 -1.40675
upperneck 30.5722 -4.19624 3.38354
head 11.4163 -1.67227 0.979906
rclavicle -1.86361e-014 9.54166e-015
rhumerus -49.7104 -3.91578 -86.1044
rradius 42.4118
rwrist 18.7762
rhand -14.213 -28.558
rfingers 7.12502
rthumb 11.9237 -58.1985
lclavicle -1.86361e-014 9.54166e-015
lhumerus -44.1957 1.81271 90.1305
lradius 38.543
lwrist -6.06593
lhand -15.8463 -31.2198
lfingers 7.12502
lthumb 10.3484 -1.49442
rfemur 0 0 0
rtibia 0
rfoot 0 0
rtoes 0
lfemur 0.558761 -5.89714 -14.3429
ltibia 19.1327
lfoot -25.7793 19.0198
ltoes -54.6565
9
root -0.572134 18.5977 5.90521 0.349586 -4.32055 -0.682185
lowerback -0.214374 1.54479 -1.11761
upperback -2.3645 2.04159 -0.323211
thorax -2.331 1.03837 0.256513
lowerneck -8.53546 -2.39383 -1.42242
upperneck 30.3742 -4.21275 3.38537
head 11.3515 -1.68284 0.979526
rclavicle 1.02374e-014 -5.56597e-015
rhumerus -49.6138 -3.79009 -86.0562
rradius 42.3618
rwrist 18.6989
rhand -13.8434 -27.9651
rfingers 7.12502
rthumb 12.2801 -57.5846
lclavicle 1.02374e-014 -5.56597e-015
lhumerus -44.082 1.80654 90.0587
lradius 38.5169
lwrist -6.08828
lhand -15.7176 -30.9973
lfingers 7.12502
lthumb 10.4726 -1.27812
rfemur 0 0 0
rtibia 0
rfoot 0 0
rtoes 0
lfemur 0.288653 -5.92668 -14.8778
ltibia 19.0065
lfoot -25.7747 19.0968
ltoes -54.4807
10
root -0.578444 18.6021 5.9038 0.452962 -4.34193 -0.447796
lowerback -0.25903 1.56003 -1.46921
upperback -2.29412 2.0588 -0.361335
thorax -2.24517 1.05283 0.416156
lowerneck -8.58454 -2.40005 -1.46879
upperneck 30.1029 -4.21908 3.45302
head 11.2587 -1.68534 1.00969
rclavicle -3.51352e-014 3.97569e-016
rhumerus -49.4844 -3.65606 -86.0325
rradius 42.3262
rwrist 18.4807
rhand -13.4599 -27.6891
rfingers 7.12502
rthumb 12.6499 -57.286
lclavicle -3.51352e-014 3.97569e-016
lhumerus -43.925 1.78339 89.9958
lradius 38.4914
lwrist -6.07068
lhand -15.5939 -30.7788
lfingers 7.12502
lthumb 10.5919 -1.06572
rfemur 0 0 0
rtibia 0
rfoot 0 0
rtoes 0
lfemur 0.182941 -5.94909 -15.1132
ltibia 18.908
lfoot -25.7243 19.1572
ltoes -54.4107
11
root -0.576992 18.6044 5.89725 0.484769 -4.32354 -0.440249
lowerback -0.125874 1.58066 -1.42279
upperback -2.21649 2.08479 -0.387542
thorax -2.23794 1.06423 0.360319
lowerneck -8.67978 -2.40668 -1.38849
upperneck 29.8529 -4.22051 3.41288
head 11.1782 -1.68323 0.978494
rclavicle -1.09083e-014 -9.54166e-015
rhumerus -49.3782 -3.65257 -85.9797
rradius 42.2567
rwrist 18.3968
rhand -13.273 -27.4748
rfingers 7.12502
rthumb 12.83 -57.0605
lclavicle -1.09083e-014 -9.54166e-015
lhumerus -43.7666 1.74326 89.9143
lradius 38.4015
lwrist -6.13615
lhand -15.442 -30.4978
lfingers 7.12502
lthumb 10.7384 -0.792308
rfemur 0 0 0
rtibia 0
rfoot 0 0
rtoes 0
lfemur 0.151695 -5.92801 -15.1174
ltibia 18.8352
lfoot -25.6257 19.1462
ltoes -54.4169
12
root -0.576264 18.6072 5.88886 0.547892 -4.34807 -0.503781
lowerback 0.00409945 1.60064 -1.34094
upperback -2.15015 2.11102 -0.380311
thorax -2.24043 1.07557 0.318754
lowerneck -8.83472 -2.40831 -1.25438
upperneck 29.652 -4.20581 3.29513
head 11.1253 -1.6758 0.911206
rclavicle 5.64051e-015 4.77083e-015
rhumerus -49.2771 -3.63267 -85.9404
rradius 42.1702
rwrist 18.3751
rhand -13.0607 -27.4468
rfingers 7.12502
rthumb 13.0347 -57.0195
lclavicle 5.64051e-015 4.77083e-015
lhumerus -43.599 1.78057 89.8023
lradius 38.2484
lwrist -6.31617
lhand -15.2757 -30.2982
lfingers 7.12502
lthumb 10.8988 -0.601019
rfemur 0 0 0
rtibia 0
rfoot 0 0
rtoes 0
lfemur 0.0306276 -5.8729 -15.0361
ltibia 18.8753
lfoot -25.6086 19.1211
ltoes -54.4263
13
root -0.575585 18.6104 5.88035 0.600274 -4.40744 -0.580132
lowerback 0.162349 1.6198 -1.26375
upperback -2.08415 2.13619 -0.353955
thorax -2.26001 1.08676 0.29842
lowerneck -9.01453 -2.3983 -1.25974
upperneck 29.4831 -4.18471 3.30412
head 11.0962 -1.6653 0.915011
rclavicle 8.62228e-015 2.38542e-015
rhumerus -49.1954 -3.55485 -85.9231
rradius 42.1369
rwrist 18.3227
rhand -12.6723 -27.5696
rfingers 7.12502
rthumb 13.4091 -57.118
lclavicle 8.62228e-015 2.38542e-015
lhumerus -43.46 1.79593 89.7339
lradius 38.1773
lwrist -6.42944
lhand -15.1813 -30.0165
lfingers 7.12502
lthumb 10.9899 -0.324155
rfemur 0 0 0
rtibia 0
rfoot 0 0
rtoes 0
lfemur -0.0922842 -5.82618 -14.9506
ltibia 18.9567
lfoot -25.6099 19.1622
ltoes -54.4451
14
root -0.573681 18.6129 5.87169 0.622571 -4.46363 -0.632071
lowerback 0.360633 1.65534 -1.16878
upperback -2.01532 2.18267 -0.350958
thorax -2.29788 1.10807 0.2424
lowerneck -9.16717 -2.41276 -1.37637
upperneck 29.2991 -4.21178 3.44007
head 11.063 -1.67442 0.97868
rclavicle 1.30701e-014 -5.1684e-015
rhumerus -49.1062 -3.49284 -85.9218
rradius 42.1136
rwrist 18.2471
rhand -12.3507 -27.7112
rfingers 7.12502
rthumb 13.719 -57.239
lclavicle 1.30701e-014 -5.1684e-015
lhumerus -43.3328 1.66695 89.7326
lradius 38.1539
lwrist -6.39949
lhand -15.0562 -29.6152
lfingers 7.12502
lthumb 11.1105 0.0707078
rfemur 0 0 0
rtibia 0
rfoot 0 0
rtoes 0
lfemur -0.178491 -5.78249 -14.8987
ltibia 19.0336
lfoot -25.5579 19.223
ltoes -54.486
15
root -0.571946 18.6152 5.86305 0.666898 -4.50652 -0.606254
lowerback 0.544372 1.68878 -1.14681
upperback -1.96934 2.22474 -0.38134
thorax -2.35242 1.12834 0.192881
lowerneck -9.25315 -2.44244 -1.49581
upperneck 29.1075 -4.25859 3.573
head 11.0145 -1.69421 1.03996
rclavicle -1.27719e-014 7.95139e-016
rhumerus -49.0088 -3.39339 -85.9841
rradius 42.0582
rwrist 18.1212
rhand -12.2249 -27.8701
rfingers 7.12502
rthumb 13.8403 -57.3896
lclavicle -1.27719e-014 7.95139e-016
lhumerus -43.2266 1.55009 89.7074
lradius 38.1072
lwrist -6.35564
lhand -14.8089 -29.4126
lfingers 7.12502
lthumb 11.3491 0.260316
rfemur 0 0 0
rtibia 0
rfoot 0 0
rtoes 0
lfemur -0.29305 -5.77558 -14.9337
ltibia 19.0942
lfoot -25.5041 19.3156
ltoes -54.5286
